<svg id="Layer_1" data-name="Layer 1" xmlns="http://www.w3.org/2000/svg" viewBox="0 0 549.36 629.95"><defs><style>.cls-1{fill:#fff;}</style></defs><path class="cls-1" d="M-1236.87-278.6c-3.74,5.93-1.52,10,5.48,9.87a80,80,0,0,0,20.08-2.91c27.15-7.85,53.67-8.1,79.6,4.57a13,13,0,0,0,7.27,1.31c8.64-1.39,17.2-3.28,25.8-5,.23-.8.47-1.6.7-2.4-7.43-4.6-14.57-9.79-22.35-13.7-35.71-18-71.74-18.37-107.63-.54C-1231.5-285.6-1234.68-282.07-1236.87-278.6Z" transform="translate(1460.68 482.98)"/><path class="cls-1" d="M-1126.45-262v23.82l25.11-26.87c-.26-.68-.52-1.37-.77-2.05Z" transform="translate(1460.68 482.98)"/><path class="cls-1" d="M-1370.54-275l-.62,213.24,184.55,107.15,185.15-106.09.62-213.23-184.54-107.15Zm271.07-2.67c2.68,1.86,5.26,3.86,9,6.65l-37.22,37.47c-45-29.71-85.78-11.41-104.26,12-21.17,26.82-22.11,68.63-1.66,95.19,12.55,16.3,28.64,26.19,49.36,29.1s38.71-3.46,55.84-15.41l36.14,37.43c-9.86,10.37-21.2,17.21-33.52,22.46-47.58,20.26-99.07,10.48-135.36-26.17-39.71-40.1-49.38-88.13-30.7-140.06,17.07-47.47,52.15-76.28,103.37-83.07C-1155.4-306.46-1126.25-296.27-1099.47-277.68Z" transform="translate(1460.68 482.98)"/><polygon class="cls-1" points="271.67 97.02 271.67 1.03 3.85 154.47 86.37 203.18 271.67 97.02"/><polygon class="cls-1" points="465.25 421.39 548.47 470.51 549.36 161.38 465.87 208.53 465.25 421.39"/><path class="cls-1" d="M-1207.31-263.63a32.86,32.86,0,0,0-10.43,1.15c-15.81,4.3-26.14,16-35.31,28.29-14.51,19.39-20.55,41.58-19.61,66,1.14,29.41,12.83,53.89,34.28,73.16,21.79,19.57,48.33,26.65,77.3,22.7,8.85-1.2,17.46-4.64,25.91-7.78,2.18-.81,4.45-4.27,4.72-6.73.67-6.19.22-12.51.22-20.21-3.51,1.73-5.75,2.78-7.93,3.92-11.59,6.08-23.76,8.84-37,9.18-40.51,1-74.71-34.11-76.08-75.62-1-29.85,11.56-53.51,36.18-70.76A71.88,71.88,0,0,0-1202.23-252C-1197.65-257.23-1200.36-263.21-1207.31-263.63Z" transform="translate(1460.68 482.98)"/><path class="cls-1" d="M-1126.53-103.54V-82.6l26.38,5Z" transform="translate(1460.68 482.98)"/><polygon class="cls-1" points="462.41 203.56 546.49 156.07 277.69 0 277.69 96.31 462.41 203.56"/><polygon class="cls-1" points="84.1 208.85 0.89 159.73 0 469.75 83.49 421.73 84.1 208.85"/><polygon class="cls-1" points="277.67 533.23 276.4 629.95 545.51 475.77 462.99 427.06 277.67 533.23"/><polygon class="cls-1" points="86.96 426.69 3.64 474.62 270.38 629.49 271.63 533.91 86.96 426.69"/></svg>